<?xml version="1.0" standalone="no"?>
<!DOCTYPE svg PUBLIC "-//W3C//DTD SVG 20010904//EN"
 "http://www.w3.org/TR/2001/REC-SVG-20010904/DTD/svg10.dtd">
<svg version="1.0" xmlns="http://www.w3.org/2000/svg"
 width="644.000000pt" height="644.000000pt" viewBox="0 0 644.000000 644.000000"
 preserveAspectRatio="xMidYMid meet">
<metadata>
Created by potrace 1.14, written by Peter Selinger 2001-2017
</metadata>
<g transform="translate(0.000000,644.000000) scale(0.100000,-0.100000)"
fill="#000000" stroke="none">
<path d="M3080 5116 c-257 -48 -471 -210 -578 -437 -34 -72 -40 -80 -74 -89
-32 -9 -47 -6 -125 26 -172 72 -325 114 -410 114 -57 0 -65 -3 -95 -33 -57
-57 -95 -196 -105 -384 l-6 -113 -76 -47 c-299 -185 -383 -341 -247 -460 68
-60 303 -153 388 -153 32 0 19 -19 -21 -31 -29 -8 -51 -9 -80 -1 -34 8 -41 7
-41 -5 0 -28 30 -72 77 -112 l48 -41 -45 -40 c-86 -76 -160 -96 -251 -68 -22
6 -42 9 -45 5 -12 -12 53 -93 99 -124 27 -18 76 -42 109 -55 l61 -22 -39 -30
c-84 -66 -143 -129 -170 -181 -16 -30 -26 -57 -22 -61 4 -3 35 3 69 15 35 12
67 21 72 21 5 0 -8 -19 -28 -42 -62 -73 -98 -161 -103 -253 l-5 -80 64 61 c87
82 158 118 129 64 -16 -29 -31 -200 -25 -270 13 -140 23 -161 43 -91 13 41 85
131 106 131 9 0 12 -9 8 -26 -12 -65 36 -223 85 -279 32 -36 84 -75 93 -70 5
3 6 29 4 58 -5 56 10 100 37 105 12 2 18 -9 22 -49 9 -75 48 -146 121 -226 56
-60 82 -78 196 -137 141 -73 207 -99 222 -90 5 3 0 21 -12 41 -11 20 -19 38
-16 40 8 8 78 -37 126 -82 55 -51 101 -79 160 -96 25 -7 65 -27 89 -43 73 -49
179 -89 216 -82 29 6 39 2 74 -32 23 -22 41 -48 41 -60 0 -12 5 -22 10 -22 18
0 88 39 122 68 18 15 56 33 83 40 59 15 163 62 208 94 18 13 53 30 79 40 54
19 152 81 172 109 13 20 105 73 113 66 2 -3 -6 -20 -17 -40 -38 -65 -3 -58
200 42 137 66 210 123 259 199 36 56 71 152 71 194 0 36 22 37 50 0 19 -23 21
-35 15 -85 -3 -33 -2 -57 3 -57 6 0 33 21 61 46 73 65 113 152 119 255 l5 80
35 -33 c19 -18 47 -59 62 -91 16 -32 30 -54 33 -50 31 50 33 281 4 376 -8 26
-11 49 -7 52 11 7 99 -61 139 -107 37 -43 51 -41 51 5 0 83 -48 207 -105 275
-20 22 -32 43 -28 45 5 3 37 -4 71 -15 35 -11 66 -17 69 -15 9 10 -49 110 -89
153 -23 25 -64 61 -91 81 -49 36 -49 37 -26 46 83 33 151 72 192 113 51 50 64
92 25 79 -13 -4 -49 -10 -81 -12 -69 -6 -120 16 -186 79 l-43 42 23 19 c54 42
87 78 99 107 16 38 11 44 -24 30 -41 -15 -83 -12 -126 10 -44 23 -48 31 -23
51 17 15 52 85 53 106 0 9 -10 11 -30 6 -22 -4 -30 -2 -30 9 0 26 24 48 89 82
166 86 266 195 266 287 0 33 -7 56 -21 76 -29 40 -109 98 -180 132 l-61 29
-11 95 c-17 153 -48 252 -93 299 l-38 40 -88 -4 c-93 -5 -211 -38 -371 -104
-90 -37 -106 -39 -181 -23 -49 10 -52 13 -86 77 -106 202 -315 365 -540 423
-104 26 -249 32 -345 15z m310 -32 c147 -27 309 -120 436 -250 72 -74 80 -98
55 -157 -12 -29 -16 -46 -9 -44 29 6 17 -39 -27 -94 -26 -33 -45 -63 -42 -66
8 -7 68 30 92 57 28 31 39 24 15 -10 -12 -16 -18 -30 -13 -30 8 0 -171 -108
-194 -117 -7 -3 -36 6 -65 20 -125 59 -174 70 -339 75 -184 5 -279 -10 -402
-64 l-77 -34 -113 62 c-61 34 -113 65 -115 70 -2 4 -10 8 -18 8 -8 0 -14 7
-14 15 0 8 -10 20 -22 26 -29 15 -38 28 -38 56 0 20 3 21 25 13 29 -11 29 -10
13 25 -8 19 -8 31 0 51 l12 25 26 -20 c29 -23 44 -27 44 -11 0 6 -7 10 -15 10
-8 0 -15 7 -15 14 0 13 4 13 35 0 19 -7 39 -14 45 -14 14 0 1 81 -16 101 -8 8
-14 22 -14 30 0 19 49 71 61 64 5 -4 9 -1 9 4 0 6 20 11 45 11 41 0 45 2 36
18 -6 11 -6 24 0 33 5 7 9 10 9 4 0 -5 7 1 16 14 18 25 133 82 206 102 105 28
223 29 368 3z m1304 -424 c5 -5 -7 -15 -28 -24 -89 -37 -261 -193 -464 -421
l-133 -150 113 -6 c126 -7 118 -6 118 -18 0 -5 -25 -17 -55 -26 -51 -16 -65
-35 -27 -35 31 -1 152 -58 201 -95 26 -20 55 -49 65 -65 16 -28 16 -29 -5 -41
-12 -6 -54 -14 -93 -18 l-70 -6 104 -46 c58 -26 123 -53 145 -60 l40 -14 -40
-5 c-40 -5 -40 -5 -15 -19 14 -7 45 -30 70 -51 52 -42 125 -90 139 -90 5 0 22
-5 38 -11 27 -10 27 -11 9 -25 -11 -8 -34 -14 -50 -15 -30 -1 -30 -1 -6 -8
l25 -7 -25 -7 c-14 -4 -49 -7 -77 -7 -37 0 -52 -4 -50 -12 1 -8 -12 -14 -35
-16 -21 -2 -38 -8 -38 -13 0 -13 45 -29 83 -29 42 0 132 -43 147 -69 11 -22 8
-25 -23 -21 -15 1 -18 -4 -14 -28 5 -33 -15 -72 -37 -72 -8 0 -20 -9 -27 -21
-37 -54 -242 4 -306 88 l-25 32 44 11 c24 6 78 26 121 43 l79 32 -89 11 c-112
14 -183 37 -238 79 -24 19 -45 31 -48 28 -3 -2 -8 5 -12 16 -4 13 -11 18 -22
14 -10 -4 -14 -2 -10 4 5 7 -1 9 -15 5 -14 -3 -19 -2 -14 6 5 8 -4 12 -26 13
-27 0 -30 2 -13 9 19 8 19 9 -2 9 -28 1 -54 -9 -48 -18 4 -7 -60 -13 -157 -15
-15 0 -25 -3 -23 -7 3 -3 -18 -16 -46 -29 -46 -22 -137 -104 -174 -157 -9 -12
-27 -53 -41 -90 -36 -93 -36 -190 -1 -259 36 -69 101 -132 177 -168 59 -28 74
-31 160 -31 91 1 99 2 175 41 44 22 110 57 146 77 69 39 149 60 273 73 45 4
67 3 63 -3 -4 -6 10 -13 33 -17 30 -5 54 -19 90 -54 80 -77 64 -100 -55 -75
-75 15 -111 14 -108 -4 1 -6 -21 -14 -54 -18 -39 -5 -52 -10 -42 -16 11 -7 7
-15 -20 -39 l-34 -31 54 7 c95 13 332 10 354 -3 17 -10 6 -12 -65 -13 -85 0
-198 -16 -300 -43 -58 -15 -56 -11 -45 -76 1 -8 25 -23 53 -32 100 -34 185
-88 237 -149 23 -26 11 -21 -51 22 -41 29 -175 88 -200 88 -25 0 -64 -31 -64
-51 0 -11 -3 -19 -7 -19 -5 0 -14 -12 -20 -27 -11 -22 -10 -31 2 -50 23 -34
19 -36 -23 -9 -30 18 -47 23 -82 19 -77 -7 -84 -7 -125 1 l-40 8 24 -26 c27
-28 18 -32 -35 -17 -23 7 -35 4 -53 -10 -13 -11 -29 -19 -37 -19 -20 0 -17
-17 4 -25 13 -5 9 -10 -23 -23 -37 -15 -38 -17 -16 -22 20 -5 7 -13 -75 -52
-113 -53 -257 -95 -377 -110 -137 -17 -337 -21 -402 -8 -33 6 -85 13 -116 15
-87 5 -243 51 -356 105 -104 49 -126 65 -75 55 21 -5 16 0 -18 19 -35 20 -40
25 -22 26 29 0 28 14 -3 28 -14 6 -25 17 -25 23 0 8 -16 10 -52 6 l-52 -7 40
27 c57 38 62 44 23 33 -49 -14 -54 -13 -86 18 -18 18 -37 26 -53 24 l-25 -2
25 14 c29 18 22 20 -15 6 -17 -6 -24 -14 -19 -22 4 -7 4 -10 -1 -6 -11 10 -71
-27 -123 -76 l-44 -41 22 37 c12 21 45 57 72 81 l51 44 -65 -8 c-116 -14 -249
-79 -342 -167 -26 -24 -46 -39 -46 -34 0 21 153 151 212 181 35 17 68 31 73
31 5 0 46 11 92 25 90 28 97 41 40 69 -20 10 -25 16 -14 16 9 0 17 4 17 9 0
12 -26 21 -61 21 -22 0 -27 -4 -22 -16 5 -14 3 -15 -15 -5 -31 16 -56 14 -140
-15 -91 -31 -128 -52 -202 -113 l-55 -46 35 42 c45 55 127 112 213 148 l68 28
-58 24 c-83 34 -163 53 -223 53 -31 0 -49 4 -45 10 8 13 117 13 186 0 30 -6
82 -24 115 -40 74 -36 130 -40 139 -9 6 18 12 20 41 14 55 -10 39 10 -26 34
-58 21 -73 35 -47 44 6 2 -6 10 -28 17 -22 7 -53 21 -70 31 -21 13 -49 19 -93
19 -58 0 -62 1 -53 18 7 13 7 22 0 29 -8 8 -5 17 9 31 37 37 60 43 130 38 133
-11 181 -25 282 -86 36 -21 92 -51 125 -66 188 -84 406 -2 498 188 14 29 29
67 32 83 12 54 36 108 61 138 13 16 24 40 24 53 0 14 3 23 8 21 4 -3 5 14 4
38 -3 27 -10 46 -19 49 -11 4 -13 1 -8 -14 4 -11 2 -20 -4 -20 -6 0 -11 -9
-11 -19 0 -24 -18 -38 -24 -19 -8 25 -46 203 -51 238 -10 71 -93 140 -168 140
-75 0 -88 -72 -26 -136 l33 -34 -39 20 c-22 11 -47 18 -57 14 -23 -7 -107 19
-168 52 -57 31 -69 28 -39 -9 l20 -27 -88 0 c-61 0 -83 -3 -73 -10 13 -9 13
-11 0 -20 -16 -11 -116 -50 -128 -50 -4 0 -7 31 -7 70 0 64 -1 69 -23 75 l-23
6 31 31 c17 17 34 44 37 60 3 16 27 51 53 77 36 36 48 58 54 90 4 30 12 44 25
48 11 3 21 13 24 24 3 10 13 19 24 19 10 1 34 14 53 30 28 24 34 37 35 69 1
22 -3 38 -7 35 -4 -3 -4 6 2 20 6 17 6 27 -1 32 -8 4 -7 10 0 17 8 8 5 17 -11
34 -12 13 -25 23 -29 23 -4 0 -20 5 -36 12 -15 7 -33 12 -40 13 -7 0 -47 36
-90 80 -75 77 -228 211 -304 267 -20 15 -63 40 -95 56 -58 30 -58 30 -31 37
86 22 384 -64 611 -176 121 -59 225 -176 198 -220 -13 -20 -6 -29 20 -29 10 0
18 -4 18 -8 0 -4 12 -7 28 -6 23 1 27 5 24 28 -3 25 0 26 42 26 42 0 47 -4
110 -71 36 -39 66 -78 66 -85 0 -8 9 -14 20 -14 11 0 20 6 20 14 0 25 -12 46
-25 46 -17 0 -75 66 -75 85 0 15 22 20 71 16 23 -2 26 1 21 24 -5 26 -4 27 42
20 35 -6 46 -4 46 6 0 8 7 22 14 32 14 17 16 18 48 2 18 -10 44 -28 59 -41
l25 -24 12 60 13 60 62 0 c98 0 241 -35 314 -76 l63 -35 58 34 c222 134 635
307 806 337 55 9 126 4 140 -10z m-2797 -400 c29 0 68 -11 110 -30 35 -16 68
-30 72 -30 7 0 61 -91 61 -103 0 -3 -10 -7 -22 -9 -42 -6 -33 -35 16 -57 25
-11 46 -22 46 -24 0 -3 -24 -19 -52 -36 -29 -17 -71 -45 -93 -61 -42 -31 -83
-38 -103 -18 -8 8 -14 5 -22 -16 -15 -39 -13 -51 7 -35 14 12 16 12 12 0 -8
-24 -30 -25 -36 -2 -3 12 -11 21 -19 21 -7 0 -18 17 -24 38 -30 114 -37 213
-23 343 5 53 8 60 16 41 8 -18 18 -22 54 -22z m2800 -170 c-3 -109 -9 -148
-28 -205 -13 -38 -30 -71 -38 -73 -11 -2 -10 3 3 23 15 22 15 25 1 25 -12 0
-15 6 -10 20 8 26 3 25 -26 -6 -15 -16 -18 -23 -8 -19 10 4 19 0 22 -9 4 -9 2
-16 -3 -16 -6 0 -10 5 -10 10 0 6 -3 9 -7 8 -5 -1 -18 3 -29 10 -12 6 -24 8
-28 5 -3 -3 -6 1 -6 10 0 9 -4 16 -9 15 -5 -2 -30 15 -56 36 -26 21 -68 49
-92 61 l-46 21 52 23 c56 24 67 53 23 59 -26 4 -26 4 -6 45 23 45 50 77 58 70
3 -3 6 -2 6 4 0 17 88 46 160 52 83 8 83 7 77 -169z m225 46 c28 -29 43 -83
32 -119 -3 -12 -17 -36 -30 -53 -26 -36 -122 -109 -130 -101 -3 3 4 65 16 139
11 73 23 148 26 166 l5 33 27 -20 c15 -10 39 -31 54 -45z m-3228 -52 c12 -32
5 -48 -44 -100 -43 -45 -50 -59 -50 -93 0 -53 29 -85 104 -114 54 -21 60 -26
71 -64 l13 -42 -30 6 c-24 5 -30 2 -35 -16 -5 -19 -10 -21 -37 -15 -51 11
-152 54 -187 79 -120 89 -85 192 110 330 72 50 76 52 85 29z m41 -185 c10 -53
16 -101 14 -108 -5 -14 -75 22 -100 52 -33 39 -22 81 34 145 12 12 24 19 28
15 3 -5 14 -51 24 -104z m3287 64 c-11 -16 -36 -43 -56 -62 -43 -42 -180 -123
-184 -110 -6 15 18 39 58 59 20 10 67 46 103 79 72 66 115 83 79 34z m-3639
-140 c9 -54 56 -105 129 -140 62 -31 180 -73 203 -73 7 0 20 -10 31 -21 l19
-22 -40 7 c-119 22 -301 102 -345 153 -43 49 -54 133 -17 133 9 0 17 -15 20
-37z m1358 -491 c45 -40 45 -94 1 -133 -20 -18 -43 -29 -62 -29 -42 0 -89 45
-97 92 -5 32 -1 41 25 68 41 40 89 41 133 2z m1180 -1 c61 -62 14 -161 -77
-161 -39 0 -84 51 -84 95 0 27 8 44 29 66 22 21 39 29 66 29 27 0 44 -8 66
-29z m-1928 -50 c41 -16 91 -33 113 -37 65 -11 69 -17 39 -53 -15 -17 -45 -41
-66 -52 -48 -24 -124 -36 -133 -20 -4 6 -28 20 -54 31 -43 20 -46 22 -28 35
21 16 13 35 -15 35 -18 0 -19 2 -5 15 8 9 13 22 10 30 -4 9 0 15 9 15 8 0 20
7 27 15 16 20 18 20 103 -14z m397 11 c18 -15 20 -21 11 -45 -14 -36 -57 -38
-73 -2 -9 21 -8 28 7 45 22 24 27 25 55 2z m1785 -53 c0 -7 -8 -15 -17 -17
-18 -3 -25 18 -11 32 10 10 28 1 28 -15z m-1725 -5 c0 -17 -22 -14 -28 4 -2 7
3 12 12 12 9 0 16 -7 16 -16z m-10 -74 c0 -5 -4 -10 -10 -10 -5 0 -10 5 -10
10 0 6 5 10 10 10 6 0 10 -4 10 -10z m1665 0 c3 -5 -1 -10 -10 -10 -9 0 -13 5
-10 10 3 6 8 10 10 10 2 0 7 -4 10 -10z m-1470 -30 c-5 -8 -11 -8 -17 -2 -6 6
-7 16 -3 22 5 8 11 8 17 2 6 -6 7 -16 3 -22z m1285 9 c0 -5 -7 -9 -15 -9 -15
0 -20 12 -9 23 8 8 24 -1 24 -14z m-108 -24 c0 -5 -5 -11 -11 -13 -6 -2 -11 4
-11 13 0 9 5 15 11 13 6 -2 11 -8 11 -13z m-1082 -10 c0 -8 -4 -15 -10 -15 -5
0 -10 7 -10 15 0 8 5 15 10 15 6 0 10 -7 10 -15z m-671 -91 c2 -2 -12 -4 -32
-4 -20 0 -37 4 -37 10 0 8 58 3 69 -6z m256 -76 c6 1 11 13 13 27 2 17 12 29
29 36 21 8 28 5 46 -17 79 -102 226 -113 320 -26 23 22 31 24 54 16 15 -5 29
-18 32 -29 2 -11 9 -24 17 -28 23 -13 16 -33 -23 -71 -52 -50 -131 -79 -218
-79 -159 -1 -283 86 -320 223 -4 17 1 13 17 -14 13 -21 28 -39 33 -38z m203
36 c4 -26 -32 -39 -49 -18 -9 11 -8 18 1 29 18 21 44 15 48 -11z m1556 9 c8
-20 -19 -44 -40 -36 -14 5 -19 35 -7 46 12 13 41 7 47 -10z m120 2 c3 -8 3
-21 0 -29 -9 -23 16 -29 37 -10 29 26 23 2 -13 -47 -39 -54 -61 -72 -117 -99
-137 -66 -311 -38 -391 62 l-33 41 21 18 c12 9 22 22 22 28 0 6 11 18 24 26
23 15 25 14 57 -16 44 -40 88 -59 141 -59 68 0 117 19 162 61 42 40 80 50 90
24z m356 10 c0 -2 -28 -13 -62 -23 -35 -11 -87 -29 -115 -41 -29 -11 -53 -19
-53 -17 0 11 66 49 113 66 47 18 117 27 117 15z m-1422 -1130 c23 -25 48 -45
55 -45 6 0 20 -14 30 -32 l18 -31 15 22 c14 20 17 21 28 6 11 -15 14 -14 41 7
17 12 37 32 45 43 30 42 60 65 83 65 24 0 59 -31 70 -63 9 -23 -11 -112 -33
-157 -10 -19 -34 -53 -54 -75 -31 -35 -35 -37 -36 -18 0 32 -17 37 -37 13 -10
-12 -35 -39 -55 -61 -21 -21 -38 -46 -38 -54 0 -19 -54 33 -90 88 -23 34 -36
42 -66 38 -14 -1 -47 35 -73 81 -14 25 -21 60 -23 104 -3 61 -1 67 25 90 15
13 34 24 40 24 7 0 32 -20 55 -45z m-179 -68 c-9 -62 -10 -98 -2 -131 13 -58
-1 -50 -33 18 -27 57 -34 166 -11 184 11 9 49 21 55 16 2 -1 -3 -40 -9 -87z
m671 63 c13 -21 12 -105 -1 -151 -7 -21 -25 -53 -40 -71 l-29 -33 12 33 c10
32 8 73 -8 192 l-6 46 31 -1 c18 0 36 -7 41 -15z m109 -94 c-20 -42 -23 -45
-35 -29 -12 17 -13 17 -14 -4 0 -32 -17 -37 -23 -7 -6 35 3 104 14 104 5 0 9
7 9 16 0 12 7 14 30 9 21 -5 30 -3 32 7 0 7 3 -1 5 -18 3 -19 -5 -50 -18 -78z"/>
<path d="M2596 4285 c4 -8 13 -15 21 -15 13 0 13 3 3 15 -7 8 -16 15 -21 15
-5 0 -6 -7 -3 -15z"/>
<path d="M3710 3627 c-58 -30 -80 -51 -100 -92 -36 -74 -6 -119 67 -100 37 9
143 116 143 143 0 29 -34 62 -62 62 -13 0 -34 -6 -48 -13z"/>
<path d="M3450 2814 c0 -37 -23 -51 -105 -66 -71 -13 -90 -12 -164 1 -74 14
-87 20 -101 44 l-17 28 -6 -28 c-8 -43 15 -88 54 -103 19 -7 48 -25 64 -41 17
-15 41 -38 54 -50 21 -20 23 -26 17 -83 -6 -52 -13 -66 -44 -99 -95 -98 -289
-106 -403 -16 -56 44 -78 79 -92 151 -12 59 -14 62 -26 39 -34 -62 25 -179
122 -242 67 -43 116 -54 222 -47 84 6 162 38 209 87 l29 30 38 -34 c75 -68
111 -80 234 -80 100 0 114 2 162 27 54 29 133 111 145 150 8 30 10 92 2 112
-9 23 -24 9 -24 -23 0 -71 -63 -161 -140 -201 -117 -60 -278 -36 -367 56 -31
32 -33 39 -33 104 0 45 4 70 11 70 7 0 26 15 44 34 17 19 50 43 73 55 23 12
46 30 52 40 13 25 13 71 0 91 -8 12 -10 11 -10 -6z"/>
<path d="M3678 1813 c7 -3 16 -2 19 1 4 3 -2 6 -13 5 -11 0 -14 -3 -6 -6z"/>
<path d="M2151 5010 c-3 -47 -23 -88 -49 -100 -25 -12 -26 -13 -7 -20 27 -10
44 -32 55 -67 7 -22 8 -24 9 -7 1 28 38 74 59 74 11 0 6 8 -16 28 -20 17 -35
42 -41 67 -5 22 -9 33 -10 25z"/>
<path d="M4943 4929 c-14 -72 -34 -106 -73 -123 l-29 -12 35 -19 c44 -24 55
-44 69 -125 l12 -65 12 70 c14 83 15 85 62 117 l37 25 -33 17 c-38 21 -48 40
-65 119 -6 31 -12 57 -13 57 -2 0 -8 -27 -14 -61z"/>
<path d="M4257 4945 c-16 -12 -16 -13 5 -19 23 -6 23 -6 3 -22 -11 -8 -20 -20
-20 -27 0 -7 -20 -22 -45 -33 -54 -26 -136 -42 -126 -25 4 6 1 11 -8 11 -28 0
-27 -20 4 -50 27 -27 38 -30 90 -30 52 0 64 4 94 31 39 34 58 85 49 130 -7 39
-24 51 -46 34z"/>
<path d="M1795 1841 c-4 -7 3 -11 16 -11 22 0 22 0 3 -21 -19 -22 -19 -22 3
-10 27 14 46 14 38 1 -3 -5 2 -10 11 -10 16 0 16 -1 -1 -20 -20 -22 -17 -24
18 -11 20 8 25 7 23 -6 -1 -8 -13 -24 -27 -34 l-24 -19 25 0 25 -1 -30 -25
c-45 -38 -161 -94 -192 -93 -16 0 -22 3 -15 6 6 2 12 11 12 20 0 12 -9 14 -50
8 -68 -9 -79 1 -38 35 33 28 33 28 6 23 -21 -4 -26 -1 -24 12 1 10 11 22 20
27 15 8 16 12 5 19 -11 6 -9 12 5 28 15 17 16 21 4 21 -33 0 -73 -63 -83 -133
-14 -94 39 -193 128 -238 62 -32 166 -24 227 16 136 92 145 275 17 376 -27 22
-53 39 -57 39 -5 0 -15 3 -23 6 -8 3 -18 1 -22 -5z m70 -240 c-20 -18 -144
-65 -153 -57 -8 9 78 46 106 46 16 0 35 7 42 15 7 8 15 15 18 15 4 0 -2 -8
-13 -19z"/>
<path d="M4938 1764 c-26 -18 -51 -27 -82 -28 -40 -1 -44 -3 -29 -14 46 -34
102 -26 136 19 30 41 17 53 -25 23z"/>
<path d="M1628 1733 c7 -3 16 -2 19 1 4 3 -2 6 -13 5 -11 0 -14 -3 -6 -6z"/>
<path d="M1830 1690 c-9 -6 -10 -10 -3 -10 6 0 15 5 18 10 8 12 4 12 -15 0z"/>
<path d="M4250 1476 c0 -8 -12 -24 -27 -35 -21 -15 -24 -20 -11 -21 9 0 23 -9
30 -19 13 -18 14 -18 41 5 l28 23 -21 21 c-11 11 -20 25 -20 30 0 6 -4 10 -10
10 -5 0 -10 -6 -10 -14z"/>
</g>
</svg>
